<svg width="520" height="80" viewBox="0 0 520 80" fill="none" xmlns="http://www.w3.org/2000/svg">
  <defs>
    <linearGradient id="coGradLight" x1="0%" y1="0%" x2="100%" y2="100%">
      <stop offset="0%" stop-color="#3B82F6"/>
      <stop offset="100%" stop-color="#6366F1"/>
    </linearGradient>
  </defs>
  <g stroke-width="5.5" stroke-linecap="round" stroke-linejoin="round" fill="none">
    <!-- C -->
    <path d="M 50,14 C 34,13 12,22 12,38 C 12,54 34,63 50,62" stroke="url(#coGradLight)"/>
    <!-- o -->
    <ellipse cx="80" cy="45" rx="14" ry="18" stroke="url(#coGradLight)"/>
    <!-- S -->
    <path d="M 134,17 C 122,13 104,18 104,29 C 104,40 120,41 122,42 C 136,44 138,54 138,54 C 138,64 118,67 104,63" stroke="#1E293B"/>
    <!-- t -->
    <path d="M 158,15 L 158,56 C 158,62 162,65 168,63" stroke="#1E293B"/>
    <line x1="147" y1="31" x2="170" y2="31" stroke="#1E293B"/>
    <!-- r -->
    <line x1="182" y1="27" x2="182" y2="63" stroke="#1E293B"/>
    <path d="M 182,38 C 188,28 200,27 206,29" stroke="#1E293B"/>
    <!-- i -->
    <circle cx="216" cy="16" r="3.5" fill="#1E293B" stroke="none"/>
    <line x1="216" y1="27" x2="216" y2="63" stroke="#1E293B"/>
    <!-- c -->
    <path d="M 250,30 C 240,26 228,32 228,45 C 228,58 240,64 250,60" stroke="#1E293B"/>
    <!-- t -->
    <path d="M 272,15 L 272,56 C 272,62 276,65 282,63" stroke="#1E293B"/>
    <line x1="261" y1="31" x2="284" y2="31" stroke="#1E293B"/>
    <!-- . -->
    <circle cx="298" cy="62" r="4" fill="#1E293B" stroke="none"/>
  </g>
</svg>
